#!OML:ASF H:\Terrain\Patient Classification 1\Walking\liu\liu.ASF
:FULLY-SPECIFIED
:DEGREES
49
root 8.594020 15.860900 -29.460501 6.667930 -10.173700 -3.184890
lowerback -67.752602 6.023500 1.118040
upperback -22.457800 7.186570 34.946102
thorax 14.374200 3.632070 36.014198
lowerneck -213.192993 -42.473404 -129.246994
upperneck 169.761017 -49.803101 143.885010
head 95.935097 -16.071301 65.338104
rclavicle 0.000000 0.000000
rhumerus -471.264008 197.789993 -947.033997
rradius 492.454987
rwrist -250.408005
rhand -304.695007 -287.894989
rfingers 71.250198
rthumb -37.708099 -587.359009
lclavicle 0.000000 0.000000
lhumerus -451.397034 -31.638601 900.627991
lradius 211.154999
lwrist -40.848499
lhand 40.461899 -164.141998
lfingers 71.250198
lthumb 294.598022 112.695000
rfemur 167.752991 43.523598 212.171997
rtibia 195.407013
rfoot 33.891102 2.496800
rtoes -151.578003
lfemur -396.174988 84.106102 -177.854004
ltibia 385.276001
lfoot -41.175999 67.252800
ltoes -20.423300
50
root 8.632260 15.880500 -29.307301 6.372820 -10.266500 -2.809990
lowerback -64.293701 6.042600 -0.789744
upperback -22.727798 7.452750 32.975498
thorax 12.160000 3.787520 35.002300
lowerneck -213.162003 -42.592400 -128.725998
upperneck 169.850006 -50.397400 144.932999
head 96.078796 -16.203001 65.556099
rclavicle 0.000000 0.000000
rhumerus -467.811005 191.423004 -946.307007
rradius 478.166016
rwrist -244.048996
rhand -301.114990 -277.759003
rfingers 71.250198
rthumb -34.251102 -577.281982
lclavicle 0.000000 0.000000
lhumerus -448.912994 -30.969101 896.853027
lradius 207.697998
lwrist -43.246498
lhand 43.677101 -160.118011
lfingers 71.250198
lthumb 297.666992 116.175003
rfemur 157.983002 36.558601 204.092010
rtibia 223.971008
rfoot 41.287300 3.491720
rtoes -155.988998
lfemur -387.093994 84.495697 -183.549988
ltibia 384.630005
lfoot -44.715900 66.391899
ltoes -21.607498
51
root 8.665140 15.898900 -29.165001 6.269750 -10.449700 -2.525180
lowerback -60.543198 6.930540 -2.899250
upperback -24.615900 8.896280 31.587299
thorax 8.031100 4.567810 34.769100
lowerneck -214.151001 -43.339802 -130.433990
upperneck 173.453995 -51.616001 146.919006
head 97.823196 -16.634901 66.580704
rclavicle 0.000000 0.000000
rhumerus -465.465027 183.117996 -944.303955
rradius 463.746002
rwrist -235.928009
rhand -291.958984 -264.664978
rfingers 71.250198
rthumb -25.408699 -564.310974
lclavicle 0.000000 0.000000
lhumerus -446.949005 -27.461201 891.887939
lradius 203.106995
lwrist -49.280701
lhand 46.403599 -161.481003
lfingers 71.250198
lthumb 300.268982 114.343002
rfemur 145.626999 30.539999 197.210999
rtibia 252.350998
rfoot 52.602100 0.607994
rtoes -149.175995
lfemur -380.106995 85.711502 -188.059998
ltibia 383.679016
lfoot -52.241100 65.696899
ltoes -19.569000
52
root 8.701530 15.927600 -29.015301 6.352920 -10.690500 -2.172150
lowerback -61.969498 8.437130 -4.643420
upperback -24.824902 11.011600 30.020800
thorax 8.474530 5.627550 34.293400
lowerneck -214.442001 -44.645699 -129.617004
upperneck 173.540985 -53.092098 144.360992
head 98.028900 -17.525002 65.246597
rclavicle 0.000000 -0.000000
rhumerus -462.987000 176.105988 -941.558960
rradius 454.520996
rwrist -232.246002
rhand -291.598999 -266.483002
rfingers 71.250198
rthumb -25.061300 -566.132996
lclavicle 0.000000 -0.000000
lhumerus -442.193970 -25.661400 888.447998
lradius 199.606995
lwrist -57.717701
lhand 42.468300 -166.320984
lfingers 71.250198
lthumb 296.513000 110.177002
rfemur 130.701996 25.072899 189.134003
rtibia 281.119995
rfoot 64.321098 -3.793730
rtoes -126.026001
lfemur -374.537018 85.801804 -193.251984
ltibia 382.402008
lfoot -59.981697 65.823700
ltoes -7.166280
53
root 8.735990 15.963800 -28.870600 6.491090 -10.938800 -1.909460
lowerback -64.129402 8.650290 -6.514770
upperback -24.283501 11.375299 29.668800
thorax 10.178400 5.793980 35.063400
lowerneck -217.120987 -44.945404 -128.710999
upperneck 173.287994 -52.856201 141.806000
head 98.272797 -17.532200 64.165802
rclavicle 0.000000 0.000000
rhumerus -456.069977 173.206009 -939.562988
rradius 443.251007
rwrist -230.009003
rhand -298.049988 -281.222992
rfingers 71.250198
rthumb -31.291000 -580.791016
lclavicle 0.000000 0.000000
lhumerus -437.876007 -24.370300 886.398010
lradius 198.916000
lwrist -62.579399
lhand 36.577000 -166.970001
lfingers 71.250198
lthumb 290.889008 110.514000
rfemur 114.357994 20.424599 182.780991
rtibia 310.053986
rfoot 73.458099 -8.057950
rtoes -117.334000
lfemur -369.651978 86.950600 -198.092010
ltibia 380.583008
lfoot -64.165703 65.819603
ltoes -7.218690
54
root 8.768380 15.997100 -28.733999 6.607820 -11.139800 -1.903280
lowerback -63.972099 7.722590 -6.324300
upperback -24.914701 10.138101 29.721201
thorax 9.524340 5.185400 34.913097
lowerneck -219.902008 -43.313900 -127.419006
upperneck 175.529007 -51.115398 142.765991
head 99.292000 -16.432899 64.689201
rclavicle -0.000000 -0.000000
rhumerus -446.834991 170.790009 -939.672974
rradius 425.955017
rwrist -224.188004
rhand -297.269012 -280.152008
rfingers 71.250198
rthumb -30.536800 -579.730957
lclavicle -0.000000 -0.000000
lhumerus -436.394012 -22.773499 883.024963
lradius 198.959991
lwrist -63.780598
lhand 33.204800 -167.835999
lfingers 71.250198
lthumb 287.667999 110.200005
rfemur 98.161697 16.516100 180.344009
rtibia 338.335999
rfoot 83.336601 -14.529700
rtoes -122.688995
lfemur -364.170990 88.393799 -200.065002
ltibia 378.350983
lfoot -69.657997 65.774902
ltoes -22.628500
55
root 8.800780 16.025900 -28.599701 6.489510 -11.342600 -1.700020
lowerback -61.095200 7.642870 -7.723800
upperback -25.930599 10.175100 28.687302
thorax 6.871480 5.246040 34.566101
lowerneck -218.789001 -42.331699 -124.737000
upperneck 175.863983 -50.694099 142.330002
head 99.055595 -16.135900 64.126503
rclavicle 0.000000 0.000000
rhumerus -442.434021 164.559998 -938.416992
rradius 411.957031
rwrist -216.070999
rhand -292.643005 -268.777008
rfingers 71.250198
rthumb -26.069401 -568.414978
lclavicle 0.000000 0.000000
lhumerus -435.097992 -21.967499 879.375000
lradius 197.503998
lwrist -67.762695
lhand 30.192699 -174.074005
lfingers 71.250198
lthumb 284.790009 104.447006
rfemur 84.526596 14.022599 176.777985
rtibia 365.872986
rfoot 93.381798 -24.339199
rtoes -111.515999
lfemur -356.057007 89.219704 -203.516998
ltibia 375.516022
lfoot -76.419205 65.955399
ltoes -31.121700
